<svg xmlns="http://www.w3.org/2000/svg" viewBox="0 0 250.89 171.61"><defs><style>.cls-1,.cls-2{fill:none;}.cls-1,.cls-2,.cls-3{stroke:#6bc1b4;stroke-miterlimit:10;}.cls-1{stroke-width:4px;}.cls-3{fill:#fff;}</style></defs><g id="Capa_4" data-name="Capa 4"><polygon class="cls-1" points="2 29.87 26.39 29.87 26.39 2 240.29 2 240.29 42.26 248.89 50.85 248.89 154.13 240 163.02 240 169.61 24.07 169.61 24.07 160.32 14.39 160.32 14.39 129.35 25.23 129.35 25.23 68.58 2 68.58 2 29.87"/><polygon class="cls-2" points="180.06 166.13 111.81 166.13 111.81 157.5 119.29 157.5 180.06 157.5 180.06 166.13"/><line class="cls-2" x1="119.16" y1="166.13" x2="119.16" y2="157.5"/><line class="cls-2" x1="127.81" y1="166.13" x2="127.81" y2="157.5"/><line class="cls-2" x1="136.45" y1="166.13" x2="136.45" y2="157.5"/><line class="cls-2" x1="145.1" y1="166.13" x2="145.1" y2="157.5"/><line class="cls-2" x1="153.74" y1="166.13" x2="153.74" y2="157.5"/><line class="cls-2" x1="162.39" y1="166.13" x2="162.39" y2="157.5"/><line class="cls-2" x1="171.03" y1="166.13" x2="171.03" y2="157.5"/><polygon class="cls-2" points="234.81 166.13 185.13 166.13 185.13 157.5 190.58 157.5 234.81 157.5 234.81 166.13"/><line class="cls-2" x1="192.48" y1="166.13" x2="192.48" y2="157.5"/><line class="cls-2" x1="201.13" y1="166.13" x2="201.13" y2="157.5"/><line class="cls-2" x1="209.77" y1="166.13" x2="209.77" y2="157.5"/><line class="cls-2" x1="218.42" y1="166.13" x2="218.42" y2="157.5"/><line class="cls-2" x1="227.06" y1="166.13" x2="227.06" y2="157.5"/><polygon class="cls-2" points="236.29 15.02 168.03 15.02 168.03 6.39 175.52 6.39 236.29 6.39 236.29 15.02"/><line class="cls-2" x1="175.39" y1="15.02" x2="175.39" y2="6.4"/><line class="cls-2" x1="184.03" y1="15.02" x2="184.03" y2="6.4"/><line class="cls-2" x1="192.68" y1="15.02" x2="192.68" y2="6.4"/><line class="cls-2" x1="201.32" y1="15.02" x2="201.32" y2="6.4"/><line class="cls-2" x1="209.97" y1="15.02" x2="209.97" y2="6.4"/><line class="cls-2" x1="218.61" y1="15.02" x2="218.61" y2="6.4"/><line class="cls-2" x1="227.26" y1="15.02" x2="227.26" y2="6.4"/><polygon class="cls-2" points="163.42 15.02 95.16 15.02 95.16 6.39 102.64 6.39 163.42 6.39 163.42 15.02"/><line class="cls-2" x1="102.52" y1="15.02" x2="102.52" y2="6.4"/><line class="cls-2" x1="111.16" y1="15.02" x2="111.16" y2="6.4"/><line class="cls-2" x1="119.81" y1="15.02" x2="119.81" y2="6.4"/><line class="cls-2" x1="128.45" y1="15.02" x2="128.45" y2="6.4"/><line class="cls-2" x1="137.1" y1="15.02" x2="137.1" y2="6.4"/><line class="cls-2" x1="145.74" y1="15.02" x2="145.74" y2="6.4"/><line class="cls-2" x1="154.39" y1="15.02" x2="154.39" y2="6.4"/><polyline class="cls-1" points="26.39 29.87 55.29 29.61 55.29 68.84 24.07 68.58"/></g><g id="Capa_3" data-name="Capa 3"><rect class="cls-1" x="121.61" y="104.58" width="114.58" height="29.81"/><rect class="cls-1" x="227.23" y="70.65" width="16.87" height="24"/><rect class="cls-2" x="82.4" y="53.61" width="17.03" height="17.03"/><line class="cls-1" x1="124.19" y1="134.39" x2="124.19" y2="140.32"/><line class="cls-1" x1="132.53" y1="134.39" x2="132.53" y2="140.32"/><line class="cls-1" x1="140.86" y1="134.39" x2="140.86" y2="140.32"/><line class="cls-1" x1="149.19" y1="134.39" x2="149.19" y2="140.32"/><line class="cls-1" x1="157.52" y1="134.39" x2="157.52" y2="140.32"/><line class="cls-1" x1="165.86" y1="134.39" x2="165.86" y2="140.32"/><line class="cls-1" x1="174.19" y1="134.39" x2="174.19" y2="140.32"/><line class="cls-1" x1="182.52" y1="134.39" x2="182.52" y2="140.32"/><line class="cls-1" x1="190.85" y1="134.39" x2="190.85" y2="140.32"/><line class="cls-1" x1="199.19" y1="134.39" x2="199.19" y2="140.32"/><line class="cls-1" x1="207.52" y1="134.39" x2="207.52" y2="140.32"/><line class="cls-1" x1="215.85" y1="134.39" x2="215.85" y2="140.32"/><line class="cls-1" x1="224.18" y1="134.39" x2="224.18" y2="140.32"/><line class="cls-1" x1="232.52" y1="134.39" x2="232.52" y2="140.32"/><line class="cls-1" x1="124.84" y1="99.24" x2="124.84" y2="105.18"/><line class="cls-1" x1="133.17" y1="99.24" x2="133.17" y2="105.18"/><line class="cls-1" x1="141.5" y1="99.24" x2="141.5" y2="105.18"/><line class="cls-1" x1="149.84" y1="99.24" x2="149.84" y2="105.18"/><line class="cls-1" x1="158.17" y1="99.24" x2="158.17" y2="105.18"/><line class="cls-1" x1="166.5" y1="99.24" x2="166.5" y2="105.18"/><line class="cls-1" x1="174.83" y1="99.24" x2="174.83" y2="105.18"/><line class="cls-1" x1="183.17" y1="99.24" x2="183.17" y2="105.18"/><line class="cls-1" x1="191.5" y1="99.24" x2="191.5" y2="105.18"/><line class="cls-1" x1="199.83" y1="99.24" x2="199.83" y2="105.18"/><line class="cls-1" x1="208.16" y1="99.24" x2="208.16" y2="105.18"/><line class="cls-1" x1="216.5" y1="99.24" x2="216.5" y2="105.18"/><line class="cls-1" x1="224.83" y1="99.24" x2="224.83" y2="105.18"/><line class="cls-1" x1="233.16" y1="99.24" x2="233.16" y2="105.18"/></g><g id="Capa_2" data-name="Capa 2"><circle class="cls-3" cx="240.29" cy="57.74" r="5.81"/><circle class="cls-3" cx="239.56" cy="146.47" r="5.08"/><circle class="cls-3" cx="71.24" cy="162.58" r="5.08"/><circle class="cls-3" cx="76.32" cy="10.71" r="5.08"/></g></svg>