<svg id="Capa_2" data-name="Capa 2" xmlns="http://www.w3.org/2000/svg" viewBox="0 0 119.13 210.48"><defs><style>.cls-1,.cls-2,.cls-3{fill:none;stroke:#e51b25;stroke-miterlimit:10;}.cls-1{stroke-width:3px;}.cls-2{stroke-width:2px;}.cls-3{stroke-width:5px;}</style></defs><rect class="cls-1" x="90.81" y="40.23" width="116.13" height="207.48" transform="translate(208.44 249.21) rotate(-180)"/><polyline class="cls-1" points="14.82 77.86 14.34 10.4 23.73 10.4 23.73 40.89 32.82 40.89 32.82 10.4 42.11 10.4 42.11 40.89 51.69 40.89 51.69 11.27 60.6 11.27 60.6 41.56 69.6 41.56 69.6 11.66 104.34 11.66"/><rect class="cls-1" x="109.06" y="138.16" width="39.19" height="39.19" transform="translate(168.02 276.79) rotate(-180)"/><rect class="cls-1" x="159.97" y="141.65" width="41.9" height="31.84" transform="translate(272.53 276.4) rotate(-180)"/><rect class="cls-1" x="107.13" y="206.29" width="14.9" height="14.9" transform="translate(139.85 388.76) rotate(-180)"/><rect class="cls-1" x="173.32" y="206.29" width="14.9" height="14.9" transform="translate(272.24 388.76) rotate(-180)"/><circle class="cls-2" cx="91.47" cy="194.77" r="6.81"/><circle class="cls-2" cx="69.13" cy="195.38" r="6.81"/><circle class="cls-2" cx="47.27" cy="195.38" r="6.81"/><circle class="cls-2" cx="25.27" cy="195.38" r="6.81"/><circle class="cls-2" cx="69.13" cy="175.02" r="6.81"/><circle class="cls-2" cx="47.27" cy="175.02" r="6.81"/><line class="cls-3" x1="106.53" y1="134.76" x2="106.53" y2="146.27"/><line class="cls-3" x1="96.73" y1="134.76" x2="96.73" y2="146.27"/><line class="cls-3" x1="86.92" y1="134.76" x2="86.92" y2="146.27"/><line class="cls-3" x1="75.94" y1="134.76" x2="75.94" y2="146.27"/><line class="cls-3" x1="75.94" y1="102.92" x2="75.94" y2="91.56"/><line class="cls-3" x1="86.92" y1="102.92" x2="86.92" y2="91.56"/><line class="cls-3" x1="96.73" y1="102.92" x2="96.73" y2="91.56"/><line class="cls-3" x1="106.53" y1="102.92" x2="106.53" y2="91.56"/><line class="cls-1" x1="54.08" y1="139.11" x2="54.08" y2="143.18"/><line class="cls-1" x1="50.05" y1="139.11" x2="50.05" y2="143.18"/><line class="cls-1" x1="45.69" y1="138.63" x2="45.69" y2="143.18"/><line class="cls-1" x1="41.31" y1="138.63" x2="41.31" y2="143.18"/><line class="cls-1" x1="37.27" y1="138.63" x2="37.27" y2="143.18"/><line class="cls-1" x1="32.95" y1="138.63" x2="32.95" y2="143.18"/><line class="cls-1" x1="28.79" y1="138.63" x2="28.79" y2="143.18"/><line class="cls-1" x1="24.69" y1="138.63" x2="24.69" y2="143.18"/><line class="cls-1" x1="54.47" y1="95.11" x2="54.47" y2="99.18"/><line class="cls-1" x1="50.44" y1="95.11" x2="50.44" y2="99.18"/><line class="cls-1" x1="46.08" y1="94.63" x2="46.08" y2="99.18"/><line class="cls-1" x1="41.69" y1="94.63" x2="41.69" y2="99.18"/><line class="cls-1" x1="37.66" y1="94.63" x2="37.66" y2="99.18"/><line class="cls-1" x1="33.34" y1="94.63" x2="33.34" y2="99.18"/><line class="cls-1" x1="29.18" y1="94.63" x2="29.18" y2="99.18"/><line class="cls-1" x1="25.08" y1="94.63" x2="25.08" y2="99.18"/><line class="cls-1" x1="59.44" y1="104.24" x2="63.5" y2="104.24"/><line class="cls-1" x1="59.44" y1="108.28" x2="63.5" y2="108.28"/><line class="cls-1" x1="58.95" y1="112.63" x2="63.5" y2="112.63"/><line class="cls-1" x1="58.95" y1="117.02" x2="63.5" y2="117.02"/><line class="cls-1" x1="58.95" y1="121.05" x2="63.5" y2="121.05"/><line class="cls-1" x1="58.95" y1="125.37" x2="63.5" y2="125.37"/><line class="cls-1" x1="58.95" y1="129.53" x2="63.5" y2="129.53"/><line class="cls-1" x1="58.95" y1="133.63" x2="63.5" y2="133.63"/><line class="cls-1" x1="19.61" y1="133.76" x2="15.55" y2="133.76"/><line class="cls-1" x1="19.61" y1="129.72" x2="15.55" y2="129.72"/><line class="cls-1" x1="20.1" y1="125.37" x2="15.55" y2="125.37"/><line class="cls-1" x1="20.1" y1="120.98" x2="15.55" y2="120.98"/><line class="cls-1" x1="20.1" y1="116.95" x2="15.55" y2="116.95"/><line class="cls-1" x1="20.1" y1="112.63" x2="15.55" y2="112.63"/><line class="cls-1" x1="20.1" y1="108.47" x2="15.55" y2="108.47"/><line class="cls-1" x1="20.1" y1="104.37" x2="15.55" y2="104.37"/><line class="cls-1" x1="14.68" y1="58.53" x2="72.98" y2="58.53"/><rect class="cls-2" x="143.39" y="107.06" width="21.86" height="15.48" transform="translate(219.33 190.89) rotate(-180)"/></svg>