<svg id="Capa_1" data-name="Capa 1" xmlns="http://www.w3.org/2000/svg" viewBox="0 0 70.05 50.77"><defs><style>.cls-1,.cls-2,.cls-3,.cls-4,.cls-5{fill:none;stroke:#be1622;stroke-miterlimit:10;}.cls-1{stroke-width:2px;}.cls-2{stroke-width:5px;}.cls-4{stroke-width:0.75px;}.cls-5{stroke-width:3px;}</style></defs><rect class="cls-1" x="1" y="1" width="48.77" height="48.77"/><line class="cls-1" x1="10.39" y1="33.13" x2="40.39" y2="33.13"/><line class="cls-2" x1="25.39" y1="33.13" x2="25.39" y2="48.92"/><rect class="cls-3" x="22.73" y="14.97" width="5.32" height="5.32"/><rect class="cls-4" x="23.62" y="20.61" width="3.53" height="1.64"/><polyline class="cls-4" points="27.15 22.25 25.4 24.02 23.62 22.25"/><line class="cls-3" x1="28.47" y1="17.63" x2="49.77" y2="17.63"/><line class="cls-3" x1="22.73" y1="17.63" x2="1" y2="17.63"/><path class="cls-3" d="M172.87,144" transform="translate(-98.92 -115.87)"/><line class="cls-4" x1="31.24" y1="31.42" x2="19.27" y2="31.42"/><line class="cls-4" x1="30.66" y1="30.32" x2="19.85" y2="30.32"/><line class="cls-4" x1="29.69" y1="29.23" x2="20.69" y2="29.23"/><line class="cls-4" x1="28.84" y1="28.13" x2="21.53" y2="28.13"/><rect class="cls-1" x="49.77" y="38.03" width="19.27" height="11.74"/><circle class="cls-3" cx="65.37" cy="44.05" r="1.57"/><rect class="cls-3" x="52.34" y="41.03" width="8.9" height="6.04"/><line class="cls-5" x1="1" y1="47.74" x2="49.77" y2="47.74"/></svg>